<svg width="291" height="290" viewBox="0 0 291 290" fill="none" xmlns="http://www.w3.org/2000/svg">
<path fill-rule="evenodd" clip-rule="evenodd" d="M290.084 144.927C290.127 224.428 225.174 289.567 145.661 289.77C65.7299 289.976 0.247761 224.426 0.535122 144.499C0.82022 64.979 66.024 0.0941779 145.523 0.220888C225.036 0.347599 290.043 65.4202 290.084 144.927ZM144.971 15.9556C74.0498 16.1479 16.2766 73.9551 16.2721 144.73C16.2698 216.179 74.2964 274.178 145.639 274.035C216.517 273.893 274.275 216.108 274.347 145.27C274.417 73.8985 216.257 15.7633 144.971 15.9556Z" fill="black"/>
<path fill-rule="evenodd" clip-rule="evenodd" d="M226.817 199.006C222.862 200.83 218.851 202.679 214.04 204.896C198.934 177.515 176.71 160.993 145.125 161.054C113.982 161.115 91.8687 177.11 77.1476 204.525C74.5207 203.586 72.4435 202.943 70.4501 202.104C68.3978 201.239 66.427 200.183 64.4834 199.239C72.4051 171.048 107.022 146.713 140.973 145.177C177.738 143.516 214.554 166.347 226.817 199.006Z" fill="black"/>
<path fill-rule="evenodd" clip-rule="evenodd" d="M115.444 67.4348C98.1613 74.8972 82.413 81.6966 65.9248 88.8127C63.8138 83.923 62.0805 79.9 59.793 74.5917C75.9485 67.5751 91.6584 60.7531 108.699 53.3496C110.88 57.8999 112.891 62.1062 115.444 67.4348Z" fill="black"/>
<path fill-rule="evenodd" clip-rule="evenodd" d="M181.421 53.084C198.724 60.6052 214.182 67.3276 230.686 74.5026C228.693 79.3877 226.939 83.6868 224.822 88.8752C208.173 81.6821 192.42 74.8782 175.624 67.624C177.559 62.7728 179.262 58.5009 181.421 53.084Z" fill="black"/>
<path fill-rule="evenodd" clip-rule="evenodd" d="M208.929 113.911C208.816 122.256 202.32 128.92 194.104 129.121C185.447 129.329 178.487 122.308 178.6 113.486C178.709 105.236 185.331 98.3982 193.414 98.1923C201.894 97.975 209.042 105.22 208.929 113.911Z" fill="black"/>
<path fill-rule="evenodd" clip-rule="evenodd" d="M112.014 113.353C112.202 122.177 105.305 129.264 96.655 129.135C88.455 129.008 81.8638 122.367 81.6918 114.05C81.5108 105.411 88.6428 98.0524 97.0736 98.1814C105.201 98.3058 111.835 105.044 112.014 113.353Z" fill="black"/>
</svg>
