<svg width="355" height="222" viewBox="0 0 355 222" fill="none" xmlns="http://www.w3.org/2000/svg">
<path fill-rule="evenodd" clip-rule="evenodd" d="M275.832 44.7152C272.192 44.724 268.557 44.9915 264.956 45.5156C254.795 31.5944 241.491 20.269 226.126 12.4612C210.762 4.65347 193.771 0.583984 176.536 0.583984C159.301 0.583984 142.31 4.65347 126.945 12.4612C111.581 20.269 98.2765 31.5944 88.116 45.5156C76.4537 43.8523 64.5654 44.8796 53.3613 48.5188C42.1572 52.1579 31.9343 58.3125 23.4752 66.5113C15.0161 74.7101 8.54521 84.7357 4.55777 95.8207C0.570336 106.906 -0.827868 118.756 0.470202 130.465C1.76827 142.173 5.72819 153.43 12.0468 163.372C18.3654 173.314 26.8752 181.679 36.9247 187.826C46.9742 193.973 58.297 197.739 70.0261 198.835C81.7553 199.932 93.5799 198.33 104.595 194.153C124.473 211.636 150.04 221.278 176.512 221.278C202.985 221.278 228.551 211.636 248.43 194.153C257.178 197.497 266.466 199.205 275.832 199.191C286.135 199.445 296.385 197.636 305.979 193.868C315.572 190.101 324.315 184.453 331.692 177.255C339.069 170.058 344.932 161.457 348.935 151.96C352.938 142.462 355 132.26 355 121.953C355 111.646 352.938 101.444 348.935 91.9464C344.932 82.4488 339.069 73.8482 331.692 66.6508C324.315 59.4534 315.572 53.8049 305.979 50.0376C296.385 46.2704 286.135 44.4608 275.832 44.7152V44.7152ZM275.832 177.157C264.477 177.137 253.408 173.601 244.145 167.034C235.974 177.081 225.665 185.181 213.97 190.744C202.275 196.307 189.487 199.193 176.536 199.193C163.585 199.193 150.797 196.307 139.102 190.744C127.406 185.181 117.098 177.081 108.926 167.034C101.837 172.017 93.6739 175.259 85.0978 176.497C76.5218 177.735 67.7746 176.934 59.566 174.159C51.3573 171.384 43.9182 166.714 37.8521 160.527C31.786 154.339 27.2637 146.809 24.652 138.547C22.0403 130.285 21.4128 121.524 22.8203 112.974C24.2278 104.424 27.6307 96.3263 32.753 89.3375C37.8753 82.3487 44.5727 76.6657 52.3021 72.7493C60.0315 68.8329 68.5752 66.7936 77.2401 66.7966C84.4323 66.7941 91.5536 68.2183 98.1916 70.9869C105.478 56.4582 116.663 44.2427 130.494 35.7062C144.325 27.1698 160.259 22.6488 176.512 22.6488C192.766 22.6488 208.699 27.1698 222.53 35.7062C236.362 44.2427 247.546 56.4582 254.833 70.9869C262.375 67.867 270.516 66.4592 278.667 66.8648C286.819 67.2705 294.78 69.4795 301.975 73.3326C309.17 77.1858 315.421 82.5871 320.277 89.1474C325.133 95.7077 328.473 103.264 330.056 111.27C331.64 119.277 331.428 127.536 329.435 135.451C327.442 143.365 323.718 150.74 318.531 157.042C313.344 163.344 306.824 168.417 299.441 171.895C292.057 175.373 283.993 177.17 275.832 177.157V177.157Z" fill="black"/>
</svg>
