<svg width="291" height="290" viewBox="0 0 291 290" fill="none" xmlns="http://www.w3.org/2000/svg">
<path fill-rule="evenodd" clip-rule="evenodd" d="M145.672 289.77C66.1836 289.981 0.909065 225.155 0.535732 145.642C0.166923 65.7076 65.5749 0.100945 145.514 0.220867C225.022 0.338527 290.034 65.4089 290.084 144.915C290.132 224.415 225.187 289.56 145.672 289.77ZM144.848 274.035C215.818 274.235 273.924 216.812 274.341 146.06C274.766 74.6045 216.945 16.0959 145.765 15.9556C74.7409 15.8176 16.6456 73.2378 16.2791 143.94C15.9035 215.43 73.6209 273.834 144.848 274.035Z" fill="black"/>
<path fill-rule="evenodd" clip-rule="evenodd" d="M207.947 175.835C211.585 178.107 214.164 179.623 216.633 181.298C217.841 182.117 218.853 183.232 219.907 184.173C187.259 238.392 104.909 238.268 70.6074 183.596C74.2887 181.171 77.9836 178.736 82.5518 175.725C98.4219 196.442 118.614 209.172 144.876 209.292C171.247 209.414 191.805 197.392 207.947 175.835Z" fill="black"/>
<path fill-rule="evenodd" clip-rule="evenodd" d="M195.207 128.072C187.098 128.249 179.95 121.673 179.457 113.582C178.944 105.101 185.976 97.578 194.571 97.4128C203.133 97.2499 210.598 104.556 210.435 112.944C210.276 120.952 203.292 127.893 195.207 128.072Z" fill="black"/>
<path fill-rule="evenodd" clip-rule="evenodd" d="M113.512 112.348C113.716 120.344 107.037 127.544 98.9342 128.055C90.4765 128.589 82.7451 121.518 82.5166 113.042C82.3039 105.109 89.0782 97.8618 97.1151 97.4229C105.699 96.9545 113.295 103.872 113.512 112.348Z" fill="black"/>
</svg>
