<svg width="305" height="292" viewBox="0 0 305 292" fill="none" xmlns="http://www.w3.org/2000/svg">
<path fill-rule="evenodd" clip-rule="evenodd" d="M60.8524 229.732C60.7331 232.314 61.1386 234.893 62.0444 237.314C62.9502 239.735 64.3374 241.946 66.1223 243.816C67.9071 245.685 70.0525 247.173 72.4288 248.189C74.805 249.206 77.3627 249.73 79.9472 249.73C82.5318 249.73 85.0895 249.206 87.4657 248.189C89.8419 247.173 91.9873 245.685 93.7722 243.816C95.557 241.946 96.9443 239.735 97.8501 237.314C98.7559 234.893 99.1614 232.314 99.0421 229.732C99.0013 219.258 79.8046 191.502 79.8046 191.502C79.8046 191.502 60.8117 219.258 60.8524 229.732Z" fill="black"/>
<path fill-rule="evenodd" clip-rule="evenodd" d="M208.027 229.325C207.908 231.906 208.313 234.486 209.219 236.906C210.125 239.327 211.512 241.539 213.297 243.408C215.082 245.277 217.227 246.765 219.604 247.782C221.98 248.798 224.537 249.322 227.122 249.322C229.707 249.322 232.264 248.798 234.64 247.782C237.017 246.765 239.162 245.277 240.947 243.408C242.732 241.539 244.119 239.327 245.025 236.906C245.931 234.486 246.336 231.906 246.217 229.325C246.217 218.769 227.02 191.176 227.02 191.176C227.02 191.176 207.986 218.769 208.027 229.325Z" fill="black"/>
<path fill-rule="evenodd" clip-rule="evenodd" d="M134.541 272.528C134.541 277.597 136.555 282.459 140.14 286.044C143.725 289.629 148.587 291.643 153.656 291.643C158.726 291.643 163.588 289.629 167.173 286.044C170.758 282.459 172.771 277.597 172.771 272.528C172.771 261.972 153.534 234.379 153.534 234.379C153.534 234.379 134.541 261.972 134.541 272.528Z" fill="black"/>
<path fill-rule="evenodd" clip-rule="evenodd" d="M238.962 38.1715C235.811 38.1762 232.664 38.4078 229.547 38.8643C220.706 26.8462 209.155 17.0832 195.832 10.3687C182.509 3.65411 167.79 0.177428 152.87 0.22111C137.951 0.264792 123.252 3.82761 109.969 10.6201C96.685 17.4125 85.1913 27.243 76.4213 39.3127C73.3004 38.8913 70.1555 38.6735 67.0063 38.6606C49.2679 38.7362 32.2861 45.8554 19.7966 58.4518C7.30714 71.0483 0.333146 88.0902 0.408812 105.829C0.484479 123.567 7.60361 140.549 20.2001 153.038C32.7965 165.528 49.8385 172.502 67.5769 172.426C75.6921 172.401 83.7332 170.881 91.2977 167.943C108.547 183.034 130.705 191.322 153.624 191.255C176.543 191.187 198.652 182.769 215.811 167.576C223.381 170.478 231.425 171.943 239.532 171.896C256.98 171.42 273.55 164.142 285.706 151.617C297.861 139.091 304.639 122.309 304.591 104.855C304.543 87.4007 297.674 70.6567 285.45 58.1977C273.226 45.7386 256.616 38.5518 239.165 38.1715H238.962ZM239.288 152.822C229.458 152.806 219.871 149.776 211.817 144.141C204.772 152.872 195.867 159.921 185.752 164.774C175.637 169.626 164.566 172.161 153.347 172.192C142.128 172.223 131.043 169.751 120.901 164.954C110.759 160.158 101.815 153.158 94.7213 144.467C87.9512 149.28 80.043 152.244 71.7773 153.067C63.5116 153.89 55.1742 152.544 47.5878 149.161C40.0015 145.777 33.4285 140.474 28.5177 133.775C23.6069 127.075 20.528 119.211 19.585 110.958C18.6419 102.705 19.8672 94.3489 23.14 86.7142C26.4129 79.0795 31.62 72.4303 38.2475 67.4227C44.875 62.4152 52.6938 59.2225 60.9321 58.1597C69.1704 57.0969 77.5435 58.2008 85.2249 61.3624C91.5056 48.7786 101.16 38.1877 113.109 30.7715C125.059 23.3553 138.835 19.4057 152.899 19.3635C166.963 19.3212 180.762 23.1879 192.757 30.5321C204.751 37.8763 214.468 48.409 220.825 60.9548C227.344 58.2409 234.385 57.0064 241.439 57.3402C248.493 57.674 255.386 59.5678 261.62 62.8852C267.855 66.2027 273.276 70.8612 277.494 76.5255C281.712 82.1897 284.621 88.7188 286.013 95.6425C287.404 102.566 287.243 109.712 285.541 116.566C283.839 123.42 280.639 129.812 276.17 135.28C271.701 140.749 266.076 145.158 259.698 148.192C253.321 151.225 246.35 152.806 239.288 152.822V152.822Z" fill="black"/>
</svg>
