<svg width="307" height="293" viewBox="0 0 307 293" fill="none" xmlns="http://www.w3.org/2000/svg">
<path d="M250.376 216.488H236.67L243.543 204.571C244.227 203.189 244.358 201.597 243.909 200.121C243.46 198.645 242.465 197.396 241.127 196.629C239.788 195.861 238.208 195.633 236.707 195.99C235.207 196.348 233.899 197.264 233.05 198.552L226.218 210.428L219.345 198.552C218.978 197.811 218.463 197.152 217.832 196.617C217.202 196.082 216.468 195.682 215.677 195.441C214.885 195.2 214.053 195.124 213.231 195.217C212.409 195.31 211.615 195.571 210.897 195.982C210.18 196.394 209.554 196.948 209.059 197.61C208.564 198.273 208.209 199.03 208.018 199.835C207.826 200.639 207.801 201.475 207.945 202.289C208.088 203.104 208.397 203.881 208.852 204.571L215.725 216.488H201.978C200.36 216.488 198.809 217.131 197.665 218.275C196.521 219.419 195.878 220.97 195.878 222.588C195.878 224.206 196.521 225.758 197.665 226.902C198.809 228.046 200.36 228.689 201.978 228.689H215.725L208.852 240.605C208.397 241.296 208.088 242.073 207.945 242.887C207.801 243.702 207.826 244.537 208.018 245.342C208.209 246.147 208.564 246.904 209.059 247.566C209.554 248.229 210.18 248.783 210.897 249.194C211.615 249.606 212.409 249.866 213.231 249.959C214.053 250.052 214.885 249.976 215.677 249.735C216.468 249.495 217.202 249.094 217.832 248.559C218.463 248.024 218.978 247.366 219.345 246.624L226.218 234.749L233.05 246.624C233.417 247.366 233.932 248.024 234.562 248.559C235.193 249.094 235.927 249.495 236.718 249.735C237.51 249.976 238.342 250.052 239.164 249.959C239.986 249.866 240.78 249.606 241.498 249.194C242.215 248.783 242.841 248.229 243.336 247.566C243.831 246.904 244.186 246.147 244.377 245.342C244.569 244.537 244.594 243.702 244.45 242.887C244.307 242.073 243.998 241.296 243.543 240.605L236.67 228.689H250.376C251.994 228.689 253.545 228.046 254.689 226.902C255.834 225.758 256.476 224.206 256.476 222.588C256.476 220.97 255.834 219.419 254.689 218.275C253.545 217.131 251.994 216.488 250.376 216.488V216.488Z" fill="black"/>
<path d="M103.557 216.488H89.8109L96.6842 204.571C97.368 203.189 97.4987 201.597 97.0497 200.121C96.6007 198.645 95.6057 197.396 94.2676 196.629C92.9295 195.861 91.349 195.633 89.8483 195.99C88.3476 196.348 87.0398 197.264 86.1913 198.552L79.3181 210.428L72.4855 198.552C72.1188 197.811 71.6042 197.152 70.9734 196.617C70.3426 196.082 69.6089 195.682 68.8175 195.441C68.0262 195.2 67.1939 195.124 66.3719 195.217C65.55 195.31 64.7558 195.571 64.0383 195.982C63.3208 196.394 62.6951 196.948 62.1999 197.61C61.7047 198.273 61.3503 199.03 61.1587 199.835C60.967 200.639 60.9421 201.475 61.0856 202.289C61.229 203.104 61.5377 203.881 61.9926 204.571L68.8659 216.488H55.1601C53.5421 216.488 51.9904 217.131 50.8464 218.275C49.7023 219.419 49.0596 220.97 49.0596 222.588C49.0596 224.206 49.7023 225.758 50.8464 226.902C51.9904 228.046 53.5421 228.689 55.1601 228.689H68.9065L62.0333 240.605C61.5784 241.296 61.2697 242.073 61.1262 242.887C60.9828 243.702 61.0077 244.537 61.1993 245.342C61.391 246.147 61.7453 246.904 62.2406 247.566C62.7358 248.229 63.3615 248.783 64.079 249.194C64.7965 249.606 65.5907 249.866 66.4126 249.959C67.2345 250.052 68.0668 249.976 68.8582 249.735C69.6495 249.495 70.3832 249.094 71.0141 248.559C71.6449 248.024 72.1595 247.366 72.5262 246.624L79.3587 234.749L86.232 246.624C87.0804 247.913 88.3883 248.829 89.889 249.186C91.3896 249.544 92.9701 249.315 94.3082 248.548C95.6463 247.78 96.6413 246.531 97.0904 245.055C97.5394 243.579 97.4087 241.988 96.7249 240.605L89.8516 228.689H103.557C105.175 228.689 106.727 228.046 107.871 226.902C109.015 225.758 109.658 224.206 109.658 222.588C109.658 220.97 109.015 219.419 107.871 218.275C106.727 217.131 105.175 216.488 103.557 216.488V216.488Z" fill="black"/>
<path d="M177.171 259.397H163.262L170.135 247.522C170.899 246.133 171.088 244.5 170.662 242.973C170.236 241.446 169.228 240.147 167.856 239.354C166.483 238.561 164.854 238.338 163.319 238.732C161.783 239.126 160.463 240.106 159.642 241.462L152.769 253.378L145.896 241.462C145.074 240.106 143.754 239.126 142.219 238.732C140.684 238.338 139.055 238.561 137.682 239.354C136.309 240.147 135.302 241.446 134.876 242.973C134.45 244.5 134.639 246.133 135.403 247.522L142.276 259.397H128.57C126.952 259.397 125.401 260.04 124.257 261.184C123.112 262.328 122.47 263.88 122.47 265.498C122.47 267.116 123.112 268.668 124.257 269.812C125.401 270.956 126.952 271.598 128.57 271.598H142.276L135.403 283.474C134.985 284.164 134.709 284.93 134.591 285.728C134.473 286.526 134.516 287.339 134.716 288.12C134.917 288.901 135.271 289.635 135.758 290.277C136.246 290.92 136.857 291.458 137.555 291.862C138.254 292.265 139.025 292.525 139.825 292.626C140.626 292.727 141.438 292.668 142.215 292.451C142.991 292.234 143.717 291.864 144.349 291.363C144.981 290.863 145.507 290.241 145.896 289.534L152.769 277.577L159.642 289.453C160.031 290.159 160.556 290.781 161.189 291.282C161.821 291.783 162.546 292.153 163.323 292.369C164.1 292.586 164.912 292.646 165.712 292.545C166.512 292.443 167.284 292.184 167.983 291.78C168.681 291.377 169.292 290.838 169.779 290.196C170.267 289.553 170.621 288.82 170.822 288.039C171.022 287.258 171.065 286.444 170.947 285.647C170.829 284.849 170.553 284.083 170.135 283.393L163.262 271.517H177.171C178.789 271.517 180.341 270.874 181.485 269.73C182.629 268.586 183.271 267.035 183.271 265.417C183.271 263.799 182.629 262.247 181.485 261.103C180.341 259.959 178.789 259.316 177.171 259.316V259.397Z" fill="black"/>
<path d="M238.541 39.0466C235.398 39.0393 232.258 39.2567 229.146 39.6973C220.37 27.672 208.877 17.889 195.605 11.1445C182.333 4.40005 167.656 0.884766 152.768 0.884766C137.88 0.884766 123.203 4.40005 109.931 11.1445C96.6587 17.889 85.1665 27.672 76.3897 39.6973C67.308 38.3801 58.0522 38.9499 49.2006 41.3712C40.349 43.7925 32.0919 48.0132 24.9451 53.7697C17.7984 59.5261 11.9155 66.6946 7.66419 74.8272C3.41285 82.9598 0.884371 91.8818 0.23673 101.036C-0.410911 110.19 0.836204 119.379 3.90015 128.029C6.9641 136.679 11.779 144.604 18.0441 151.31C24.3092 158.015 31.8899 163.356 40.3123 167C48.7348 170.643 57.8182 172.51 66.995 172.485C75.0721 172.501 83.0829 171.026 90.6242 168.133C107.806 183.23 129.896 191.555 152.768 191.555C175.64 191.555 197.73 183.23 214.912 168.133C222.454 171.023 230.464 172.498 238.541 172.485C247.441 172.705 256.296 171.142 264.583 167.887C272.87 164.633 280.422 159.754 286.794 153.537C293.167 147.319 298.231 139.89 301.689 131.686C305.147 123.482 306.928 114.669 306.928 105.766C306.928 96.8628 305.147 88.0498 301.689 79.8456C298.231 71.6415 293.167 64.2121 286.794 57.9949C280.422 51.7777 272.87 46.8984 264.583 43.6442C256.296 40.3901 247.441 38.8269 238.541 39.0466V39.0466ZM238.541 153.411C228.738 153.406 219.176 150.366 211.17 144.707C204.107 153.387 195.199 160.384 185.093 165.189C174.988 169.995 163.938 172.488 152.748 172.488C141.558 172.488 130.508 169.995 120.402 165.189C110.296 160.384 101.388 153.387 94.3252 144.707C87.5564 149.467 79.6642 152.381 71.4264 153.162C63.1886 153.942 54.8895 152.564 47.3469 149.161C39.8043 145.758 33.2784 140.448 28.4124 133.756C23.5463 127.063 20.5081 119.218 19.5969 110.994C18.6858 102.769 19.9332 94.4492 23.2164 86.8537C26.4995 79.2582 31.705 72.6492 38.3199 67.6779C44.9348 62.7065 52.7308 59.5445 60.9398 58.5034C69.1487 57.4623 77.4873 58.5779 85.1338 61.7405C91.4216 49.1888 101.078 38.6344 113.023 31.2584C124.968 23.8824 138.729 19.9758 152.768 19.9758C166.807 19.9758 180.568 23.8824 192.513 31.2584C204.458 38.6344 214.114 49.1888 220.402 61.7405C226.909 59.0646 233.928 57.8636 240.955 58.2241C247.981 58.5845 254.841 60.4972 261.04 63.8249C267.239 67.1525 272.624 71.8123 276.807 77.4693C280.991 83.1263 283.869 89.6399 285.234 96.5419C286.6 103.444 286.419 110.563 284.706 117.386C282.992 124.21 279.787 130.57 275.323 136.007C270.858 141.445 265.244 145.826 258.884 148.835C252.524 151.844 245.577 153.407 238.541 153.411V153.411Z" fill="black"/>
</svg>
