<svg width="293" height="292" viewBox="0 0 293 292" fill="none" xmlns="http://www.w3.org/2000/svg">
<path fill-rule="evenodd" clip-rule="evenodd" d="M218.283 217.754C216.182 219.862 215.002 222.718 215.002 225.695C215.002 228.672 216.182 231.528 218.283 233.636L234.166 249.364C236.307 251.054 238.991 251.906 241.714 251.76C244.438 251.614 247.015 250.48 248.963 248.571C250.911 246.661 252.096 244.107 252.296 241.386C252.496 238.666 251.697 235.966 250.049 233.792L234.166 217.909C233.135 216.854 231.905 216.012 230.548 215.433C229.191 214.854 227.733 214.548 226.257 214.534C224.781 214.519 223.318 214.796 221.949 215.349C220.581 215.901 219.335 216.719 218.283 217.754V217.754Z" fill="black"/>
<path fill-rule="evenodd" clip-rule="evenodd" d="M43.5721 43.0397C41.4801 45.1534 40.3066 48.0072 40.3066 50.9812C40.3066 53.9551 41.4801 56.8089 43.5721 58.9226L59.455 74.7665C60.4953 75.8094 61.7309 76.6372 63.0911 77.2025C64.4513 77.7679 65.9096 78.0599 67.3827 78.0617C68.8557 78.0635 70.3147 77.7751 71.6763 77.2131C73.0379 76.651 74.2755 75.8263 75.3184 74.786C76.3613 73.7457 77.189 72.5101 77.7544 71.1499C78.3198 69.7896 78.6117 68.3314 78.6135 66.8583C78.6153 65.3853 78.327 63.9263 77.765 62.5647C77.2029 61.203 76.3782 59.9655 75.3379 58.9226L59.455 43.0397C58.4134 41.9945 57.1757 41.1652 55.813 40.5993C54.4502 40.0335 52.9891 39.7422 51.5135 39.7422C50.038 39.7422 48.5769 40.0335 47.2141 40.5993C45.8514 41.1652 44.6137 41.9945 43.5721 43.0397V43.0397Z" fill="black"/>
<path fill-rule="evenodd" clip-rule="evenodd" d="M247.87 146.276C247.87 149.26 249.055 152.121 251.165 154.231C253.275 156.341 256.137 157.526 259.12 157.526H281.582C284.447 157.358 287.138 156.101 289.107 154.013C291.075 151.925 292.171 149.165 292.171 146.295C292.171 143.426 291.075 140.665 289.107 138.578C287.138 136.49 284.447 135.233 281.582 135.064H259.12C256.143 135.064 253.288 136.244 251.179 138.346C249.07 140.447 247.88 143.299 247.87 146.276V146.276Z" fill="black"/>
<path fill-rule="evenodd" clip-rule="evenodd" d="M0.829102 146.276C0.829102 149.26 2.0144 152.121 4.12426 154.231C6.23411 156.341 9.09569 157.526 12.0795 157.526H34.5413C37.4056 157.358 40.0972 156.101 42.0655 154.013C44.0338 151.926 45.1301 149.165 45.1301 146.295C45.1301 143.426 44.0338 140.665 42.0655 138.578C40.0972 136.49 37.4056 135.233 34.5413 135.065H12.0795C10.6039 135.059 9.14181 135.346 7.77708 135.907C6.41235 136.468 5.17181 137.293 4.12661 138.334C3.0814 139.376 2.25209 140.614 1.68623 141.977C1.12037 143.339 0.829093 144.8 0.829102 146.276Z" fill="black"/>
<path fill-rule="evenodd" clip-rule="evenodd" d="M75.3776 217.754C73.2689 215.653 70.4132 214.473 67.4361 214.473C64.4591 214.473 61.6034 215.653 59.4947 217.754L43.6118 233.793C41.964 235.966 41.1652 238.666 41.3651 241.387C41.565 244.107 42.7498 246.662 44.6976 248.571C46.6454 250.481 49.2226 251.615 51.9465 251.761C54.6703 251.907 57.354 251.055 59.4947 249.364L75.3776 233.793C76.4369 232.743 77.2777 231.494 77.8516 230.118C78.4254 228.741 78.7209 227.265 78.7209 225.773C78.7209 224.282 78.4254 222.806 77.8516 221.429C77.2777 220.053 76.4369 218.804 75.3776 217.754V217.754Z" fill="black"/>
<path fill-rule="evenodd" clip-rule="evenodd" d="M250.01 43.0433C247.903 40.9537 245.056 39.7812 242.088 39.7812C239.121 39.7812 236.274 40.9537 234.166 43.0433L218.284 58.9262C216.177 61.0324 214.994 63.889 214.994 66.8676C214.994 69.8462 216.177 72.7028 218.284 74.809C220.39 76.9152 223.246 78.0985 226.225 78.0985C229.204 78.0985 232.06 76.9152 234.166 74.809L250.01 58.9262C251.056 57.8846 251.885 56.6469 252.451 55.2842C253.017 53.9214 253.308 52.4603 253.308 50.9847C253.308 49.5092 253.017 48.0481 252.451 46.6853C251.885 45.3225 251.056 44.0849 250.01 43.0433V43.0433Z" fill="black"/>
<path fill-rule="evenodd" clip-rule="evenodd" d="M146.811 247.34C145.336 247.34 143.874 247.631 142.512 248.197C141.149 248.763 139.911 249.592 138.87 250.637C137.828 251.683 137.003 252.923 136.442 254.288C135.881 255.653 135.595 257.115 135.6 258.59V281.052C135.768 283.916 137.025 286.608 139.113 288.576C141.2 290.545 143.961 291.641 146.831 291.641C149.7 291.641 152.461 290.545 154.548 288.576C156.636 286.608 157.893 283.916 158.061 281.052V258.59C158.061 255.606 156.876 252.745 154.766 250.635C152.656 248.525 149.795 247.34 146.811 247.34V247.34Z" fill="black"/>
<path fill-rule="evenodd" clip-rule="evenodd" d="M146.811 0.220703C145.336 0.220694 143.874 0.511971 142.512 1.07783C141.149 1.64369 139.911 2.473 138.87 3.51821C137.828 4.56341 137.003 5.80395 136.442 7.16868C135.881 8.53341 135.595 9.99549 135.6 11.4711V33.9329C135.768 36.7972 137.025 39.4888 139.113 41.4571C141.2 43.4254 143.961 44.5217 146.831 44.5217C149.7 44.5217 152.461 43.4254 154.548 41.4571C156.636 39.4888 157.893 36.7972 158.061 33.9329V11.5489C158.072 10.065 157.788 8.59364 157.228 7.21968C156.667 5.84573 155.84 4.59629 154.794 3.54334C153.748 2.49038 152.505 1.65472 151.134 1.08447C149.764 0.514227 148.295 0.220668 146.811 0.220703V0.220703Z" fill="black"/>
<path fill-rule="evenodd" clip-rule="evenodd" d="M146.811 67.6836C131.255 67.6759 116.047 72.2823 103.109 80.9199C90.1716 89.5576 80.0866 101.838 74.13 116.209C68.1734 130.579 66.6129 146.393 69.6458 161.651C72.6788 176.908 80.1689 190.923 91.1686 201.923C102.168 212.923 116.184 220.413 131.441 223.446C146.698 226.479 162.513 224.918 176.883 218.962C191.254 213.005 203.534 202.92 212.172 189.983C220.81 177.045 225.416 161.836 225.408 146.28C225.377 125.445 217.087 105.471 202.354 90.7382C187.621 76.0051 167.647 67.7145 146.811 67.6836V67.6836ZM146.811 202.454C135.7 202.462 124.835 199.174 115.592 193.006C106.349 186.839 99.1434 178.068 94.8857 167.804C90.6281 157.541 89.5101 146.245 91.6732 135.345C93.8363 124.446 99.1832 114.433 107.038 106.573C114.892 98.7133 124.901 93.3593 135.799 91.1887C146.697 89.0181 157.994 90.1282 168.26 94.3788C178.527 98.6293 187.303 105.829 193.477 115.068C199.651 124.306 202.946 135.169 202.946 146.28C202.972 153.67 201.539 160.993 198.73 167.828C195.921 174.663 191.791 180.877 186.576 186.114C181.362 191.35 175.165 195.506 168.341 198.343C161.518 201.181 154.201 202.644 146.811 202.649V202.454Z" fill="black"/>
</svg>
