<svg width="291" height="290" viewBox="0 0 291 290" fill="none" xmlns="http://www.w3.org/2000/svg">
<path fill-rule="evenodd" clip-rule="evenodd" d="M145.78 0.221554C225.297 0.488551 290.196 65.6833 290.085 145.181C289.976 225.13 224.193 290.364 144.277 289.768C64.7572 289.18 0.107664 223.732 0.535313 144.244C0.962961 64.7262 66.2891 -0.0499687 145.78 0.221554ZM145.173 15.9563C74.2311 16.0626 16.3696 73.7815 16.2768 144.531C16.1795 215.982 74.1383 274.093 145.445 274.034C216.344 273.975 274.189 216.279 274.35 145.468C274.506 74.0711 216.432 15.8477 145.173 15.9563Z" fill="black"/>
<path fill-rule="evenodd" clip-rule="evenodd" d="M208.005 175.81C212.324 178.638 216.298 181.243 220.26 183.838C187.068 236.81 107.707 239.618 70.3203 183.987C73.8162 181.586 77.346 179.165 82.2469 175.801C98.2102 195.93 118.407 209.309 144.998 209.318C171.372 209.329 191.899 197.294 208.005 175.81Z" fill="black"/>
<path fill-rule="evenodd" clip-rule="evenodd" d="M125.897 126.288C118.258 128.06 112.273 128.7 107.902 119.159C103.575 109.714 89.3544 110.37 83.347 119.079C77.5115 127.54 77.5115 127.54 66.7479 126.363C65.4265 110.64 76.7852 98.0319 93.2644 96.9322C111.787 95.6945 124.428 106.972 125.897 126.288Z" fill="black"/>
<path fill-rule="evenodd" clip-rule="evenodd" d="M224.664 126.276C216.213 128.301 210.871 127.79 206.791 119.097C202.384 109.702 186.832 109.811 182.617 119.312C178.247 129.161 172.025 127.718 164.547 126.31C166.527 107.019 178.471 96.1056 196.417 96.8545C212.794 97.5379 223.895 108.94 224.664 126.276Z" fill="black"/>
</svg>
