<svg width="291" height="290" viewBox="0 0 291 290" fill="none" xmlns="http://www.w3.org/2000/svg">
<path fill-rule="evenodd" clip-rule="evenodd" d="M290.084 145.418C289.857 224.934 224.702 289.868 145.203 289.805C65.2547 289.742 -0.00939988 223.994 0.533638 144.076C1.0812 64.5516 66.4924 -0.127489 145.982 0.252644C225.501 0.635039 290.305 65.9205 290.084 145.418ZM145.602 274.068C216.486 273.939 274.256 216.177 274.342 145.339C274.433 73.9644 216.289 15.8109 145.011 15.9874C74.0836 16.1662 16.2976 73.9508 16.2772 144.723C16.2546 216.172 74.2669 274.197 145.602 274.068Z" fill="black"/>
<path fill-rule="evenodd" clip-rule="evenodd" d="M227.127 198.992C222.38 201.035 218.36 202.766 214.427 204.461C181.193 144.794 106.593 148.262 76.6653 204.585C72.4839 202.786 68.1984 200.94 63.9424 199.107C75.2919 168.522 108.689 145.884 142.733 145.14C179.028 144.346 212.739 165.493 227.127 198.992Z" fill="black"/>
<path fill-rule="evenodd" clip-rule="evenodd" d="M96.6902 128.211C88.1532 128.012 81.3335 120.505 81.8064 111.832C82.2612 103.548 89.0311 97.2849 97.369 97.4343C106.101 97.5881 112.784 104.842 112.278 113.61C111.8 121.788 104.741 128.399 96.6902 128.211Z" fill="black"/>
<path fill-rule="evenodd" clip-rule="evenodd" d="M209.017 114.126C208.363 122.353 201.27 128.56 193.072 128.084C184.361 127.578 178.095 120.215 178.815 111.329C179.492 102.978 186.341 97.0131 194.746 97.4612C203.55 97.9273 209.734 105.148 209.017 114.126Z" fill="black"/>
<path fill-rule="evenodd" clip-rule="evenodd" d="M103.252 59.0371C111.837 65.2505 119.625 70.8891 128.463 77.2857C125.415 81.5532 122.738 85.3024 119.405 89.9704C110.827 83.7819 102.813 77.9985 94.2783 71.8394C97.3578 67.443 99.8897 63.834 103.252 59.0371Z" fill="black"/>
<path fill-rule="evenodd" clip-rule="evenodd" d="M171.184 90.0038C167.833 85.3336 165.276 81.7699 162.115 77.3644C170.616 71.1873 178.461 65.4876 187.115 59.1973C190.195 63.3584 192.989 67.128 196.435 71.7801C188.02 77.8509 180.164 83.5189 171.184 90.0038Z" fill="black"/>
</svg>
